<mxfile host="app.diagrams.net" modified="2024-07-21T02:12:54.300Z" agent="Mozilla/5.0 (Windows NT 10.0; Win64; x64) AppleWebKit/537.36 (KHTML, like Gecko) Chrome/126.0.0.0 Safari/537.36" version="24.7.2" etag="-KsaCF43nSdSIcgHCmaK" type="github">
  <diagram name="Trang-1" id="jElLyU2Z-Hek5XI_W_8Q">
    <mxGraphModel>
      <root>
        <mxCell id="0" />
        <mxCell id="1" parent="0" />
      </root>
    </mxGraphModel>
  </diagram>
</mxfile>
